<svg xmlns="http://www.w3.org/2000/svg" viewBox="0 0 160 160"><circle cx="80" cy="80" r="76" fill="#ffffff" stroke="#0F4C81" stroke-width="6"/><path d="M80 31c7 8 12 17 12 27 0 7-5 13-12 13s-12-6-12-13c0-10 5-19 12-27Z" fill="#E94F37"/><path d="M121 55c-2 10-7 19-15 25-5 4-14 4-18-2s-2-15 4-19c8-6 18-7 29-4Z" fill="#F2C94C"/><path d="M128 98c-9 4-19 6-29 4-7-2-12-9-10-16s10-11 17-9c10 2 17 9 22 21Z" fill="#2E8B57"/><path d="M95 128c-8-6-14-14-17-24-2-7 2-15 9-17 7-2 14 3 16 10 3 10 1 20-8 31Z" fill="#0F4C81"/><path d="M50 128c-8-11-11-21-8-31 2-7 9-12 16-10 7 2 11 10 9 17-3 10-9 18-17 24Z" fill="#2E8B57"/><path d="M32 98c5-12 12-19 22-21 7-2 15 2 17 9s-3 14-10 16c-10 2-20 0-29-4Z" fill="#F2C94C"/><path d="M39 55c11-3 21-2 29 4 6 4 8 13 4 19s-13 6-18 2c-8-6-13-15-15-25Z" fill="#E94F37"/><text x="80" y="92" text-anchor="middle" font-size="34" font-weight="700" fill="#0F4C81" font-family="Arial, sans-serif">IAR</text></svg>
